<svg width="500" height="500" viewBox="0 0 500 500" fill="none" xmlns="http://www.w3.org/2000/svg">
<g clip-path="url(#clip0_111_4)">
<rect width="500" height="500" fill="#1D2025"/>
<rect y="425" width="84" height="75" fill="#E5C07B"/>
<rect x="416" y="425" width="84" height="75" fill="#E5C07B"/>
<path fill-rule="evenodd" clip-rule="evenodd" d="M250 675C316.304 675 379.893 648.661 426.777 601.777C473.661 554.893 500 491.304 500 425C500 358.696 473.661 295.107 426.777 248.223C379.893 201.339 316.304 175 250 175C183.696 175 120.107 201.339 73.2233 248.223C26.3392 295.107 0 358.696 0 425C0 491.304 26.3392 554.893 73.2233 601.777C120.107 648.661 183.696 675 250 675ZM281.25 331.25C281.25 322.962 277.958 315.013 272.097 309.153C266.237 303.292 258.288 300 250 300C241.712 300 233.763 303.292 227.903 309.153C222.042 315.013 218.75 322.962 218.75 331.25V443.313L178.344 402.906C172.45 397.214 164.556 394.064 156.362 394.135C148.169 394.206 140.331 397.493 134.537 403.287C128.743 409.081 125.456 416.919 125.385 425.112C125.314 433.306 128.464 441.2 134.156 447.094L227.906 540.844C233.766 546.702 241.714 549.993 250 549.993C258.286 549.993 266.234 546.702 272.094 540.844L365.844 447.094C371.536 441.2 374.686 433.306 374.615 425.112C374.544 416.919 371.257 409.081 365.463 403.287C359.669 397.493 351.831 394.206 343.638 394.135C335.444 394.064 327.55 397.214 321.656 402.906L281.25 443.313V331.25Z" fill="#E5C07B"/>
<path d="M18.103 184.363C18.103 169.503 20.4753 155.672 25.2197 142.871C29.9642 130.07 37.0809 119.014 46.5698 109.705C56.1483 100.305 68.0542 92.9647 82.2876 87.6831C96.521 82.312 113.127 79.6265 132.104 79.6265C145.89 79.6265 158.691 81.7301 170.508 85.9375C182.324 90.1449 193.245 96.9482 203.271 106.348L219.788 81.6406H229.053V168.787H218.579C215.356 154.553 210.97 142.737 205.42 133.337C199.959 123.938 193.917 116.463 187.292 110.913C180.758 105.273 173.91 101.335 166.748 99.0967C159.676 96.7692 152.962 95.6055 146.606 95.6055C143.563 95.6055 140.519 95.874 137.476 96.4111C134.521 96.8587 131.657 97.9777 128.882 99.7681C126.107 101.469 123.511 103.975 121.094 107.288C118.677 110.6 116.573 115.12 114.783 120.85C113.082 126.489 111.694 133.472 110.62 141.797C109.635 150.122 109.143 160.148 109.143 171.875C109.143 184.139 109.501 194.926 110.217 204.236C111.023 213.546 112.187 221.602 113.708 228.406C115.32 235.209 117.244 240.849 119.482 245.325C121.81 249.801 124.495 253.381 127.539 256.067C130.672 258.752 134.163 260.677 138.013 261.841C141.862 262.915 146.069 263.452 150.635 263.452C159.587 263.452 167.957 262.109 175.745 259.424C183.533 256.649 190.426 252.307 196.423 246.399C202.421 240.491 207.345 232.882 211.194 223.572C215.133 214.262 217.684 203.072 218.848 190.002H230.664C229.948 202.625 227.665 214.396 223.816 225.317C220.056 236.239 214.282 245.772 206.494 253.918C198.706 262.065 188.68 268.465 176.416 273.12C164.152 277.775 149.202 280.103 131.567 280.103C114.38 280.103 98.8037 277.775 84.8389 273.12C70.874 268.465 58.9233 261.93 48.9868 253.516C39.1398 245.011 31.5308 234.896 26.1597 223.169C20.7886 211.442 18.103 198.507 18.103 184.363ZM267.993 239.819C267.993 232.926 269.291 227.018 271.887 222.095C274.483 217.082 278.153 212.874 282.898 209.473C287.642 205.981 293.327 203.206 299.951 201.147C306.576 198.999 313.916 197.343 321.973 196.179C330.119 195.015 338.847 194.255 348.157 193.896C357.467 193.449 367.135 193.225 377.161 193.225V185.706C377.161 174.247 376.355 165.072 374.744 158.179C373.222 151.286 370.85 146.004 367.627 142.334C364.494 138.664 360.6 136.292 355.945 135.217C351.29 134.054 345.874 133.472 339.697 133.472C336.385 133.472 332.849 133.74 329.089 134.277C325.419 134.814 322.152 135.441 319.287 136.157C323.405 136.605 327.209 137.634 330.701 139.246C334.192 140.857 337.191 142.871 339.697 145.288C342.204 147.705 344.128 150.391 345.471 153.345C346.903 156.299 347.62 159.298 347.62 162.341C347.62 166.101 346.68 169.637 344.8 172.949C342.92 176.261 340.324 179.171 337.012 181.677C333.7 184.094 329.85 186.019 325.464 187.451C321.077 188.883 316.378 189.6 311.365 189.6C306.352 189.6 301.652 188.883 297.266 187.451C292.969 186.019 289.164 184.094 285.852 181.677C282.629 179.171 280.078 176.261 278.198 172.949C276.318 169.637 275.378 166.101 275.378 162.341C275.378 157.328 276.721 152.808 279.407 148.779C282.182 144.751 285.897 141.215 290.552 138.171C295.296 135.038 300.846 132.353 307.202 130.115C313.647 127.877 320.54 126.042 327.881 124.609C335.221 123.177 342.83 122.148 350.708 121.521C358.675 120.805 366.597 120.447 374.475 120.447C388.44 120.447 400.57 121.431 410.864 123.401C421.248 125.281 429.842 128.682 436.646 133.606C443.538 138.44 448.686 145.109 452.087 153.613C455.489 162.028 457.19 172.725 457.19 185.706V241.968C457.19 248.682 457.861 253.874 459.204 257.544C460.636 261.125 463.232 262.915 466.992 262.915C468.872 262.915 470.394 262.333 471.558 261.169C472.811 259.916 473.751 258.305 474.377 256.335C475.094 254.366 475.586 252.083 475.854 249.487C476.123 246.891 476.257 244.25 476.257 241.565V228.271H488.208V241.565C488.208 248.726 487.268 254.769 485.388 259.692C483.598 264.616 480.42 268.599 475.854 271.643C471.379 274.687 465.336 276.835 457.727 278.088C450.208 279.431 440.719 280.103 429.26 280.103C423.442 280.103 417.981 279.789 412.878 279.163C407.865 278.536 403.255 277.462 399.048 275.94C394.93 274.418 391.349 272.404 388.306 269.897C385.262 267.391 382.845 264.258 381.055 260.498C378.369 264.616 374.788 267.973 370.312 270.569C365.837 273.075 361.003 275.045 355.811 276.477C350.618 277.909 345.382 278.849 340.1 279.297C334.819 279.834 329.985 280.103 325.598 280.103C315.125 280.103 306.217 278.984 298.877 276.746C291.536 274.597 285.583 271.688 281.018 268.018C276.453 264.347 273.14 260.095 271.082 255.261C269.023 250.338 267.993 245.19 267.993 239.819ZM345.471 238.342C345.471 244.967 346.68 250.338 349.097 254.456C351.514 258.484 355.497 260.498 361.047 260.498C365.702 260.498 369.552 258.842 372.595 255.53C375.639 252.128 377.161 247.607 377.161 241.968V205.579C370.715 205.579 365.434 206.16 361.316 207.324C357.198 208.488 353.931 210.368 351.514 212.964C349.186 215.47 347.575 218.827 346.68 223.035C345.874 227.242 345.471 232.345 345.471 238.342Z" fill="#E06C75"/>
</g>
<defs>
<clipPath id="clip0_111_4">
<rect width="500" height="500" fill="white"/>
</clipPath>
</defs>
</svg>
